<svg xmlns="http://www.w3.org/2000/svg" xmlns:xlink="http://www.w3.org/1999/xlink" width="500" zoomAndPan="magnify" viewBox="0 0 375 374.999991" height="500" preserveAspectRatio="xMidYMid meet" version="1.0"><defs><g/></defs><g fill="#bc0be3" fill-opacity="1"><g transform="translate(138.636162, 155.34371)"><g><path d="M 8.65625 -14.90625 L 14.671875 0 L 11.015625 0 L 9.921875 -2.984375 L 4.25 -2.984375 L 3.140625 0 L -0.5 0 L 5.515625 -14.90625 Z M 8.765625 -5.953125 L 7.09375 -10.296875 L 7.0625 -10.296875 L 5.40625 -5.953125 Z M 8.765625 -5.953125 "/></g></g></g><g fill="#bc0be3" fill-opacity="1"><g transform="translate(152.794105, 155.34371)"><g><path d="M 4.484375 -14.90625 L 4.484375 -2.984375 L 9.609375 -2.984375 L 9.609375 0 L 1.078125 0 L 1.078125 -14.90625 Z M 4.484375 -14.90625 "/></g></g></g><g fill="#bc0be3" fill-opacity="1"><g transform="translate(162.99721, 155.34371)"><g><path d="M 14.5625 -8.34375 L 14.5625 -5.109375 C 14.175781 -3.335938 13.332031 -2 12.03125 -1.09375 C 10.726562 -0.1875 9.273438 0.265625 7.671875 0.265625 C 5.660156 0.265625 3.945312 -0.484375 2.53125 -1.984375 C 1.125 -3.492188 0.421875 -5.3125 0.421875 -7.4375 C 0.421875 -9.601562 1.109375 -11.429688 2.484375 -12.921875 C 3.867188 -14.421875 5.597656 -15.171875 7.671875 -15.171875 C 10.097656 -15.171875 12.015625 -14.320312 13.421875 -12.625 L 11.203125 -10.1875 C 10.398438 -11.46875 9.289062 -12.109375 7.875 -12.109375 C 6.820312 -12.109375 5.925781 -11.648438 5.1875 -10.734375 C 4.445312 -9.828125 4.078125 -8.726562 4.078125 -7.4375 C 4.078125 -6.175781 4.445312 -5.097656 5.1875 -4.203125 C 5.925781 -3.304688 6.820312 -2.859375 7.875 -2.859375 C 8.738281 -2.859375 9.492188 -3.117188 10.140625 -3.640625 C 10.785156 -4.160156 11.109375 -4.851562 11.109375 -5.71875 L 7.671875 -5.71875 L 7.671875 -8.34375 Z M 14.5625 -8.34375 "/></g></g></g><g fill="#bc0be3" fill-opacity="1"><g transform="translate(177.967787, 155.34371)"><g><path d="M 0.421875 -7.453125 C 0.421875 -9.609375 1.15625 -11.429688 2.625 -12.921875 C 4.09375 -14.421875 5.859375 -15.171875 7.921875 -15.171875 C 10.003906 -15.171875 11.773438 -14.425781 13.234375 -12.9375 C 14.691406 -11.457031 15.421875 -9.628906 15.421875 -7.453125 C 15.421875 -5.273438 14.703125 -3.441406 13.265625 -1.953125 C 11.835938 -0.472656 10.054688 0.265625 7.921875 0.265625 C 5.742188 0.265625 3.945312 -0.46875 2.53125 -1.9375 C 1.125 -3.414062 0.421875 -5.253906 0.421875 -7.453125 Z M 4.078125 -7.453125 C 4.078125 -6.671875 4.195312 -5.957031 4.4375 -5.3125 C 4.675781 -4.675781 5.097656 -4.132812 5.703125 -3.6875 C 6.304688 -3.238281 7.046875 -3.015625 7.921875 -3.015625 C 9.191406 -3.015625 10.148438 -3.445312 10.796875 -4.3125 C 11.441406 -5.1875 11.765625 -6.234375 11.765625 -7.453125 C 11.765625 -8.671875 11.4375 -9.71875 10.78125 -10.59375 C 10.125 -11.46875 9.171875 -11.90625 7.921875 -11.90625 C 6.703125 -11.90625 5.753906 -11.46875 5.078125 -10.59375 C 4.410156 -9.71875 4.078125 -8.671875 4.078125 -7.453125 Z M 4.078125 -7.453125 "/></g></g></g><g fill="#bc0be3" fill-opacity="1"><g transform="translate(193.805172, 155.34371)"><g><path d="M 1.078125 -14.90625 L 6.40625 -14.90625 C 7.84375 -14.90625 9.007812 -14.519531 9.90625 -13.75 C 10.8125 -12.988281 11.265625 -11.894531 11.265625 -10.46875 C 11.265625 -9.375 10.988281 -8.457031 10.4375 -7.71875 C 9.894531 -6.976562 9.15625 -6.457031 8.21875 -6.15625 L 13.34375 0 L 9.03125 0 L 4.484375 -5.890625 L 4.484375 0 L 1.078125 0 Z M 4.484375 -8.296875 L 4.875 -8.296875 C 5.1875 -8.296875 5.453125 -8.300781 5.671875 -8.3125 C 5.890625 -8.320312 6.132812 -8.363281 6.40625 -8.4375 C 6.6875 -8.507812 6.910156 -8.609375 7.078125 -8.734375 C 7.242188 -8.867188 7.382812 -9.0625 7.5 -9.3125 C 7.625 -9.570312 7.6875 -9.878906 7.6875 -10.234375 C 7.6875 -10.597656 7.625 -10.90625 7.5 -11.15625 C 7.382812 -11.414062 7.242188 -11.609375 7.078125 -11.734375 C 6.910156 -11.867188 6.6875 -11.972656 6.40625 -12.046875 C 6.132812 -12.117188 5.890625 -12.160156 5.671875 -12.171875 C 5.453125 -12.179688 5.1875 -12.1875 4.875 -12.1875 L 4.484375 -12.1875 Z M 4.484375 -8.296875 "/></g></g></g><g fill="#bc0be3" fill-opacity="1"><g transform="translate(206.73513, 155.34371)"><g><path d="M 4.484375 -5.984375 L 4.484375 0 L 1.078125 0 L 1.078125 -14.90625 L 4.484375 -14.90625 L 4.484375 -8.953125 L 9.28125 -8.953125 L 9.28125 -14.90625 L 12.6875 -14.90625 L 12.6875 0 L 9.28125 0 L 9.28125 -5.984375 Z M 4.484375 -5.984375 "/></g></g></g><g fill="#bc0be3" fill-opacity="1"><g transform="translate(220.495779, 155.34371)"><g><path d="M -0.546875 -14.90625 L 3.546875 -14.90625 L 6.640625 -10.140625 L 9.75 -14.90625 L 13.84375 -14.90625 L 8.34375 -6.6875 L 8.34375 0 L 4.953125 0 L 4.953125 -6.6875 Z M -0.546875 -14.90625 "/></g></g></g><g fill="#bc0be3" fill-opacity="1"><g transform="translate(233.786912, 155.34371)"><g><path d="M 13.40625 0 L 12.703125 -8.828125 L 12.609375 -8.828125 L 9.5625 -0.09375 L 7.53125 -0.09375 L 4.484375 -8.828125 L 4.390625 -8.828125 L 3.6875 0 L 0.28125 0 L 1.625 -14.90625 L 5.234375 -14.90625 L 8.546875 -6.296875 L 11.84375 -14.90625 L 15.46875 -14.90625 L 16.796875 0 Z M 13.40625 0 "/></g></g></g><g fill="#bc0be3" fill-opacity="1"><g transform="translate(250.870342, 155.34371)"><g><path d="M 4.484375 -9.25 L 4.484375 0 L 1.078125 0 L 1.078125 -14.90625 L 4.484375 -14.90625 L 10.40625 -5.65625 L 10.4375 -5.65625 L 10.4375 -14.90625 L 13.84375 -14.90625 L 13.84375 0 L 10.4375 0 L 4.515625 -9.25 Z M 4.484375 -9.25 "/></g></g></g><g fill="#bc0be3" fill-opacity="1"><g transform="translate(265.786742, 155.34371)"><g><path d="M 6.578125 -15.171875 C 7.378906 -15.171875 8.164062 -15.050781 8.9375 -14.8125 C 9.707031 -14.582031 10.28125 -14.351562 10.65625 -14.125 L 11.203125 -13.765625 L 9.828125 -11.046875 C 9.710938 -11.117188 9.554688 -11.210938 9.359375 -11.328125 C 9.171875 -11.441406 8.8125 -11.59375 8.28125 -11.78125 C 7.757812 -11.976562 7.269531 -12.078125 6.8125 -12.078125 C 6.238281 -12.078125 5.800781 -11.957031 5.5 -11.71875 C 5.195312 -11.476562 5.046875 -11.15625 5.046875 -10.75 C 5.046875 -10.539062 5.113281 -10.347656 5.25 -10.171875 C 5.394531 -10.003906 5.640625 -9.816406 5.984375 -9.609375 C 6.335938 -9.410156 6.644531 -9.25 6.90625 -9.125 C 7.175781 -9.007812 7.585938 -8.832031 8.140625 -8.59375 C 9.109375 -8.1875 9.929688 -7.628906 10.609375 -6.921875 C 11.285156 -6.222656 11.625 -5.425781 11.625 -4.53125 C 11.625 -3.675781 11.472656 -2.929688 11.171875 -2.296875 C 10.867188 -1.660156 10.445312 -1.160156 9.90625 -0.796875 C 9.375 -0.429688 8.78125 -0.164062 8.125 0 C 7.476562 0.175781 6.773438 0.265625 6.015625 0.265625 C 5.367188 0.265625 4.726562 0.195312 4.09375 0.0625 C 3.46875 -0.0625 2.941406 -0.222656 2.515625 -0.421875 C 2.097656 -0.617188 1.722656 -0.8125 1.390625 -1 C 1.054688 -1.195312 0.8125 -1.363281 0.65625 -1.5 L 0.421875 -1.703125 L 2.109375 -4.546875 C 2.253906 -4.429688 2.453125 -4.28125 2.703125 -4.09375 C 2.960938 -3.90625 3.410156 -3.65625 4.046875 -3.34375 C 4.691406 -3.03125 5.265625 -2.875 5.765625 -2.875 C 7.191406 -2.875 7.90625 -3.359375 7.90625 -4.328125 C 7.90625 -4.535156 7.851562 -4.726562 7.75 -4.90625 C 7.65625 -5.082031 7.476562 -5.253906 7.21875 -5.421875 C 6.957031 -5.597656 6.726562 -5.738281 6.53125 -5.84375 C 6.332031 -5.945312 6.003906 -6.101562 5.546875 -6.3125 C 5.097656 -6.519531 4.765625 -6.679688 4.546875 -6.796875 C 3.648438 -7.234375 2.953125 -7.785156 2.453125 -8.453125 C 1.960938 -9.128906 1.71875 -9.851562 1.71875 -10.625 C 1.71875 -11.957031 2.207031 -13.046875 3.1875 -13.890625 C 4.175781 -14.742188 5.304688 -15.171875 6.578125 -15.171875 Z M 6.578125 -15.171875 "/></g></g></g></svg>